<svg width="50" height="11" viewBox="0 0 50 11" fill="none" xmlns="http://www.w3.org/2000/svg">
<path d="M3.89658 0.199999V10H2.07658V1.726H0.00457813V0.199999H3.89658ZM13.0138 0.0599995C14.3578 0.0599995 15.3984 0.48 16.1358 1.32C16.8824 2.16 17.2558 3.364 17.2558 4.932C17.2558 6.03333 17.0551 6.976 16.6538 7.76C16.2524 8.53467 15.6878 9.12733 14.9598 9.538C14.2411 9.93933 13.4058 10.14 12.4538 10.14C11.9498 10.14 11.4738 10.0887 11.0258 9.986C10.5871 9.874 10.2044 9.71533 9.87775 9.51L10.5498 8.138C11.0351 8.45533 11.6558 8.614 12.4118 8.614C13.3544 8.614 14.0918 8.32467 14.6238 7.746C15.1558 7.16733 15.4218 6.332 15.4218 5.24V5.226C15.1324 5.562 14.7638 5.81867 14.3158 5.996C13.8678 6.164 13.3638 6.248 12.8038 6.248C12.1598 6.248 11.5811 6.12667 11.0678 5.884C10.5544 5.632 10.1531 5.27733 9.86375 4.82C9.57442 4.36267 9.42975 3.83533 9.42975 3.238C9.42975 2.60333 9.58842 2.048 9.90575 1.572C10.2231 1.08667 10.6524 0.713333 11.1938 0.451999C11.7351 0.190666 12.3418 0.0599995 13.0138 0.0599995ZM13.1538 4.82C13.7418 4.82 14.2178 4.66133 14.5818 4.344C14.9551 4.02667 15.1418 3.62533 15.1418 3.14C15.1418 2.664 14.9598 2.272 14.5958 1.964C14.2411 1.64667 13.7464 1.488 13.1118 1.488C12.5424 1.488 12.0804 1.642 11.7258 1.95C11.3711 2.24867 11.1938 2.65 11.1938 3.154C11.1938 3.66733 11.3711 4.07333 11.7258 4.372C12.0804 4.67067 12.5564 4.82 13.1538 4.82ZM25.8107 0.199999V1.418L22.0027 10H20.0567L23.7387 1.74H19.8887V3.406H18.1947V0.199999H25.8107ZM30.7509 10.14C29.9669 10.14 29.2669 9.944 28.6509 9.552C28.0349 9.15067 27.5495 8.572 27.1949 7.816C26.8402 7.05067 26.6629 6.14533 26.6629 5.1C26.6629 4.05467 26.8402 3.154 27.1949 2.398C27.5495 1.63267 28.0349 1.054 28.6509 0.661999C29.2669 0.260666 29.9669 0.0599995 30.7509 0.0599995C31.5349 0.0599995 32.2349 0.260666 32.8509 0.661999C33.4762 1.054 33.9662 1.63267 34.3209 2.398C34.6755 3.154 34.8529 4.05467 34.8529 5.1C34.8529 6.14533 34.6755 7.05067 34.3209 7.816C33.9662 8.572 33.4762 9.15067 32.8509 9.552C32.2349 9.944 31.5349 10.14 30.7509 10.14ZM30.7509 8.558C31.4509 8.558 32.0015 8.26867 32.4029 7.69C32.8135 7.11133 33.0189 6.248 33.0189 5.1C33.0189 3.952 32.8135 3.08867 32.4029 2.51C32.0015 1.93133 31.4509 1.642 30.7509 1.642C30.0602 1.642 29.5095 1.93133 29.0989 2.51C28.6975 3.08867 28.4969 3.952 28.4969 5.1C28.4969 6.248 28.6975 7.11133 29.0989 7.69C29.5095 8.26867 30.0602 8.558 30.7509 8.558ZM42.9759 6.766V7.564H46.0559V8.544H42.9759V10H41.1559V8.544H39.7559V7.564H41.1559V0.199999H45.1879C46.4946 0.199999 47.5119 0.479999 48.2399 1.04C48.9773 1.6 49.3459 2.41667 49.3459 3.49C49.3459 4.554 48.9773 5.366 48.2399 5.926C47.5119 6.486 46.4946 6.766 45.1879 6.766H42.9759ZM47.5119 3.504C47.5119 2.93467 47.3113 2.50067 46.9099 2.202C46.5086 1.894 45.9299 1.74 45.1739 1.74H42.9759V5.296H45.1739C45.9206 5.296 46.4946 5.142 46.8959 4.834C47.3066 4.51667 47.5119 4.07333 47.5119 3.504Z" fill="#DE2F46"/>
</svg>
