<svg width="90" height="18" viewBox="0 0 90 18" fill="none" xmlns="http://www.w3.org/2000/svg">
<path d="M12.96 14.912V17H0.888V15.368L7.728 8.768C8.56 7.968 9.12 7.28 9.408 6.704C9.696 6.112 9.84 5.52 9.84 4.928C9.84 4.048 9.528 3.368 8.904 2.888C8.296 2.392 7.416 2.144 6.264 2.144C4.408 2.144 2.976 2.752 1.968 3.968L0.336 2.552C0.992 1.752 1.848 1.128 2.904 0.68C3.976 0.232 5.168 0.0079999 6.48 0.0079999C8.24 0.0079999 9.64 0.432 10.68 1.28C11.72 2.112 12.24 3.248 12.24 4.688C12.24 5.584 12.048 6.432 11.664 7.232C11.28 8.032 10.552 8.944 9.48 9.968L4.344 14.912H12.96ZM35.9946 12.872H32.8026V17H30.4746V12.872H21.1386V11.192L29.7306 0.199999H32.3226L24.0906 10.808H30.5466V7.16H32.8026V10.808H35.9946V12.872ZM49.1709 14.912V17H37.0989V15.368L43.9389 8.768C44.7709 7.968 45.3309 7.28 45.6189 6.704C45.9069 6.112 46.0509 5.52 46.0509 4.928C46.0509 4.048 45.7389 3.368 45.1149 2.888C44.5069 2.392 43.6269 2.144 42.4749 2.144C40.6189 2.144 39.1869 2.752 38.1789 3.968L36.5469 2.552C37.2029 1.752 38.0589 1.128 39.1149 0.68C40.1869 0.232 41.3789 0.0079999 42.6909 0.0079999C44.4509 0.0079999 45.8509 0.432 46.8909 1.28C47.9309 2.112 48.4509 3.248 48.4509 4.688C48.4509 5.584 48.2589 6.432 47.8749 7.232C47.4909 8.032 46.7629 8.944 45.6909 9.968L40.5549 14.912H49.1709ZM57.9379 17.192C56.6099 17.192 55.4259 16.856 54.3859 16.184C53.3619 15.496 52.5539 14.504 51.9619 13.208C51.3699 11.912 51.0739 10.376 51.0739 8.6C51.0739 6.824 51.3699 5.288 51.9619 3.992C52.5539 2.696 53.3619 1.712 54.3859 1.04C55.4259 0.352 56.6099 0.0079999 57.9379 0.0079999C59.2499 0.0079999 60.4179 0.352 61.4419 1.04C62.4819 1.712 63.2979 2.696 63.8899 3.992C64.4819 5.288 64.7779 6.824 64.7779 8.6C64.7779 10.376 64.4819 11.912 63.8899 13.208C63.2979 14.504 62.4819 15.496 61.4419 16.184C60.4179 16.856 59.2499 17.192 57.9379 17.192ZM57.9379 15.056C59.2819 15.056 60.3539 14.504 61.1539 13.4C61.9699 12.296 62.3779 10.696 62.3779 8.6C62.3779 6.504 61.9699 4.904 61.1539 3.8C60.3539 2.696 59.2819 2.144 57.9379 2.144C56.5779 2.144 55.4899 2.696 54.6739 3.8C53.8739 4.904 53.4739 6.504 53.4739 8.6C53.4739 10.696 53.8739 12.296 54.6739 13.4C55.4899 14.504 56.5779 15.056 57.9379 15.056ZM77.967 11.408V12.824H83.295V14.192H77.967V17H75.543V14.192H73.095V12.824H75.543V0.199999H82.143C84.335 0.199999 86.047 0.687999 87.279 1.664C88.511 2.624 89.127 4 89.127 5.792C89.127 7.6 88.511 8.992 87.279 9.968C86.047 10.928 84.335 11.408 82.143 11.408H77.967ZM86.703 5.816C86.703 4.68 86.311 3.808 85.527 3.2C84.743 2.592 83.615 2.288 82.143 2.288H77.967V9.416H82.143C83.599 9.416 84.719 9.104 85.503 8.48C86.303 7.84 86.703 6.952 86.703 5.816Z" fill="#DE2F46"/>
</svg>
