<svg width="42" height="11" viewBox="0 0 42 11" fill="none" xmlns="http://www.w3.org/2000/svg">
<path d="M9.76216 7.774H8.02616V10H6.26216V7.774H0.886156V6.514L5.71616 0.199999H7.66216L3.11216 6.234H6.31816V4.26H8.02616V6.234H9.76216V7.774ZM13.5531 3.994C14.9344 3.994 15.9564 4.26467 16.6191 4.806C17.2818 5.338 17.6131 6.066 17.6131 6.99C17.6131 7.578 17.4684 8.11 17.1791 8.586C16.8898 9.062 16.4558 9.44 15.8771 9.72C15.2984 10 14.5844 10.14 13.7351 10.14C13.0351 10.14 12.3584 10.042 11.7051 9.846C11.0518 9.64067 10.5011 9.36067 10.0531 9.006L10.8231 7.592C11.1871 7.89067 11.6211 8.12867 12.1251 8.306C12.6384 8.474 13.1658 8.558 13.7071 8.558C14.3511 8.558 14.8551 8.42733 15.2191 8.166C15.5924 7.89533 15.7791 7.52667 15.7791 7.06C15.7791 6.556 15.5784 6.178 15.1771 5.926C14.7851 5.66467 14.1084 5.534 13.1471 5.534H10.7811L11.2851 0.199999H17.0391V1.726H12.8251L12.6151 3.994H13.5531ZM22.7509 10.14C21.9669 10.14 21.2669 9.944 20.6509 9.552C20.0349 9.15067 19.5495 8.572 19.1949 7.816C18.8402 7.05067 18.6629 6.14533 18.6629 5.1C18.6629 4.05467 18.8402 3.154 19.1949 2.398C19.5495 1.63267 20.0349 1.054 20.6509 0.661999C21.2669 0.260666 21.9669 0.0599995 22.7509 0.0599995C23.5349 0.0599995 24.2349 0.260666 24.8509 0.661999C25.4762 1.054 25.9662 1.63267 26.3209 2.398C26.6755 3.154 26.8529 4.05467 26.8529 5.1C26.8529 6.14533 26.6755 7.05067 26.3209 7.816C25.9662 8.572 25.4762 9.15067 24.8509 9.552C24.2349 9.944 23.5349 10.14 22.7509 10.14ZM22.7509 8.558C23.4509 8.558 24.0015 8.26867 24.4029 7.69C24.8135 7.11133 25.0189 6.248 25.0189 5.1C25.0189 3.952 24.8135 3.08867 24.4029 2.51C24.0015 1.93133 23.4509 1.642 22.7509 1.642C22.0602 1.642 21.5095 1.93133 21.0989 2.51C20.6975 3.08867 20.4969 3.952 20.4969 5.1C20.4969 6.248 20.6975 7.11133 21.0989 7.69C21.5095 8.26867 22.0602 8.558 22.7509 8.558ZM34.9759 6.766V7.564H38.0559V8.544H34.9759V10H33.1559V8.544H31.7559V7.564H33.1559V0.199999H37.1879C38.4946 0.199999 39.5119 0.479999 40.2399 1.04C40.9773 1.6 41.3459 2.41667 41.3459 3.49C41.3459 4.554 40.9773 5.366 40.2399 5.926C39.5119 6.486 38.4946 6.766 37.1879 6.766H34.9759ZM39.5119 3.504C39.5119 2.93467 39.3113 2.50067 38.9099 2.202C38.5086 1.894 37.9299 1.74 37.1739 1.74H34.9759V5.296H37.1739C37.9206 5.296 38.4946 5.142 38.8959 4.834C39.3066 4.51667 39.5119 4.07333 39.5119 3.504Z" fill="#DE2F46"/>
</svg>
