<svg width="33" height="17" viewBox="0 0 33 17" fill="none" xmlns="http://www.w3.org/2000/svg">
<path d="M23.6686 0C26.4174 0 28.5149 0.730714 29.9681 2.18531C31.4213 3.63991 32.1479 5.74328 32.1479 8.48175V16.7655H28.1859V8.48175C28.1859 6.92471 27.7746 5.72962 26.952 4.88281C26.1295 4.036 24.9642 3.61943 23.4699 3.61943C22.284 3.61943 21.2078 3.89942 20.255 4.45941C19.2953 5.01939 18.5687 5.77059 18.0615 6.71301C18.13 7.25934 18.1575 7.85347 18.1575 8.48858V16.7723H14.1954V8.48175C14.1954 6.92471 13.791 5.72962 12.9753 4.88281C12.1596 4.036 11.008 3.61943 9.51367 3.61943C8.34837 3.61943 7.29275 3.89259 6.3468 4.43892C5.40085 4.98525 4.68796 5.72279 4.20128 6.63789V16.7586H0.239258V0.396088H3.93394L4.06418 2.13751C5.62706 0.710227 7.57379 0 9.90439 0C13.0918 0 15.3813 1.01754 16.766 3.05944C17.5817 2.04873 18.5756 1.2907 19.7546 0.778518C20.9336 0.259506 22.236 0 23.6686 0Z" fill="#002051"/>
</svg>
