<svg width="21" height="23" viewBox="0 0 21 23" fill="none" xmlns="http://www.w3.org/2000/svg">
<path d="M16.2322 8.34517C16.2322 6.87691 15.7181 5.72279 14.683 4.87598C13.648 4.02917 12.2291 3.6126 10.4263 3.6126C9.2404 3.6126 8.15736 3.81064 7.17713 4.20673C6.19691 4.60282 5.43604 5.13549 4.88766 5.8184V11.2749C5.43604 11.9783 6.20376 12.5314 7.1977 12.9343C8.19163 13.3372 9.26782 13.5421 10.4331 13.5421C12.2565 13.5421 13.6822 13.1187 14.7036 12.2787C15.7249 11.4319 16.2391 10.271 16.2391 8.7754V8.34517H16.2322ZM10.4948 0C12.4758 0 14.2032 0.341455 15.6907 1.01754C17.1781 1.69362 18.316 2.66335 19.118 3.92674C19.92 5.18329 20.3245 6.65838 20.3245 8.34517V8.7754C20.3245 10.4622 19.92 11.9373 19.118 13.1938C18.316 14.4504 17.1713 15.4269 15.6907 16.1167C14.2032 16.8064 12.4758 17.1547 10.4948 17.1547C8.29445 17.1547 6.42312 16.5742 4.88766 15.4133V22.3448H0.932495V0.396088H4.62718L4.72315 1.90532C6.34771 0.635107 8.27388 0 10.4948 0Z" fill="#002051"/>
</svg>
