<svg width="121" height="24" viewBox="0 0 121 24" fill="none" xmlns="http://www.w3.org/2000/svg">
<path d="M10.112 10.008C12.3093 10.2213 13.984 10.904 15.136 12.056C16.288 13.1867 16.864 14.6373 16.864 16.408C16.864 17.688 16.544 18.8507 15.904 19.896C15.264 20.92 14.304 21.7413 13.024 22.36C11.7653 22.9573 10.2187 23.256 8.384 23.256C6.784 23.256 5.248 23.0213 3.776 22.552C2.304 22.0613 1.09867 21.3893 0.16 20.536L1.632 18.008C2.4 18.7333 3.38133 19.32 4.576 19.768C5.77067 20.1947 7.04 20.408 8.384 20.408C10.048 20.408 11.3387 20.056 12.256 19.352C13.1947 18.648 13.664 17.6773 13.664 16.44C13.664 15.2027 13.2053 14.2427 12.288 13.56C11.3707 12.8773 9.984 12.536 8.128 12.536H6.336V10.296L11.968 3.384H1.184V0.599998H15.968V2.776L10.112 10.008ZM35.7063 0.344C38.7143 0.344 41.0289 1.31467 42.6503 3.256C44.2929 5.19733 45.1143 7.94933 45.1143 11.512C45.1143 14.008 44.6663 16.1413 43.7703 17.912C42.8956 19.6613 41.6583 20.9947 40.0583 21.912C38.4796 22.808 36.6343 23.256 34.5223 23.256C33.4343 23.256 32.4103 23.1493 31.4503 22.936C30.4903 22.7013 29.6583 22.3707 28.9543 21.944L30.1703 19.448C31.2583 20.152 32.6983 20.504 34.4903 20.504C36.8156 20.504 38.6289 19.7893 39.9303 18.36C41.2529 16.9093 41.9143 14.808 41.9143 12.056V11.256C41.2743 12.216 40.3889 12.952 39.2583 13.464C38.1276 13.9547 36.8583 14.2 35.4503 14.2C33.9783 14.2 32.6556 13.9227 31.4823 13.368C30.3303 12.8133 29.4236 12.024 28.7623 11C28.1223 9.95467 27.8023 8.76 27.8023 7.416C27.8023 6.008 28.1436 4.77067 28.8263 3.704C29.5303 2.63733 30.4796 1.816 31.6743 1.24C32.8689 0.642666 34.2129 0.344 35.7063 0.344ZM35.9943 11.608C36.9969 11.608 37.8929 11.416 38.6823 11.032C39.4716 10.648 40.0796 10.1253 40.5063 9.464C40.9543 8.80267 41.1783 8.06667 41.1783 7.256C41.1783 6.46667 40.9649 5.752 40.5383 5.112C40.1329 4.45067 39.5249 3.928 38.7143 3.544C37.9249 3.13867 36.9649 2.936 35.8343 2.936C34.3623 2.936 33.1676 3.33067 32.2503 4.12C31.3543 4.90933 30.9062 5.96533 30.9062 7.288C30.9062 8.61067 31.3649 9.66667 32.2823 10.456C33.1996 11.224 34.4369 11.608 35.9943 11.608ZM67.6803 17.496H63.4243V23H60.3203V17.496H47.8723V15.256L59.3283 0.599998H62.7843L51.8083 14.744H60.4163V9.88H63.4243V14.744H67.6803V17.496ZM78.7505 23.256C76.9798 23.256 75.4012 22.808 74.0145 21.912C72.6492 20.9947 71.5718 19.672 70.7825 17.944C69.9932 16.216 69.5985 14.168 69.5985 11.8C69.5985 9.432 69.9932 7.384 70.7825 5.656C71.5718 3.928 72.6492 2.616 74.0145 1.72C75.4012 0.802666 76.9798 0.344 78.7505 0.344C80.4998 0.344 82.0572 0.802666 83.4225 1.72C84.8092 2.616 85.8972 3.928 86.6865 5.656C87.4758 7.384 87.8705 9.432 87.8705 11.8C87.8705 14.168 87.4758 16.216 86.6865 17.944C85.8972 19.672 84.8092 20.9947 83.4225 21.912C82.0572 22.808 80.4998 23.256 78.7505 23.256ZM78.7505 20.408C80.5425 20.408 81.9718 19.672 83.0385 18.2C84.1265 16.728 84.6705 14.5947 84.6705 11.8C84.6705 9.00533 84.1265 6.872 83.0385 5.4C81.9718 3.928 80.5425 3.192 78.7505 3.192C76.9372 3.192 75.4865 3.928 74.3985 5.4C73.3318 6.872 72.7985 9.00533 72.7985 11.8C72.7985 14.5947 73.3318 16.728 74.3985 18.2C75.4865 19.672 76.9372 20.408 78.7505 20.408ZM105.456 15.544V17.432H112.56V19.256H105.456V23H102.224V19.256H98.96V17.432H102.224V0.599998H111.024C113.947 0.599998 116.229 1.25067 117.872 2.552C119.515 3.832 120.336 5.66667 120.336 8.056C120.336 10.4667 119.515 12.3227 117.872 13.624C116.229 14.904 113.947 15.544 111.024 15.544H105.456ZM117.104 8.088C117.104 6.57333 116.581 5.41067 115.536 4.6C114.491 3.78933 112.987 3.384 111.024 3.384H105.456V12.888H111.024C112.965 12.888 114.459 12.472 115.504 11.64C116.571 10.7867 117.104 9.60267 117.104 8.088Z" fill="#DE2F46"/>
</svg>
