<svg width="57" height="13" viewBox="0 0 57 13" fill="none" xmlns="http://www.w3.org/2000/svg">
<path d="M4.24 0.799999V12H2.656V2.192H0.128V0.799999H4.24ZM14.6188 0.672C16.1228 0.672 17.2801 1.15733 18.0908 2.128C18.9121 3.09867 19.3228 4.47467 19.3228 6.256C19.3228 7.504 19.0988 8.57067 18.6508 9.456C18.2134 10.3307 17.5948 10.9973 16.7948 11.456C16.0054 11.904 15.0828 12.128 14.0268 12.128C13.4828 12.128 12.9708 12.0747 12.4908 11.968C12.0108 11.8507 11.5948 11.6853 11.2428 11.472L11.8508 10.224C12.3948 10.576 13.1148 10.752 14.0108 10.752C15.1734 10.752 16.0801 10.3947 16.7308 9.68C17.3921 8.95467 17.7228 7.904 17.7228 6.528V6.128C17.4028 6.608 16.9601 6.976 16.3948 7.232C15.8294 7.47733 15.1948 7.6 14.4908 7.6C13.7548 7.6 13.0934 7.46133 12.5068 7.184C11.9308 6.90667 11.4774 6.512 11.1468 6C10.8268 5.47733 10.6668 4.88 10.6668 4.208C10.6668 3.504 10.8374 2.88533 11.1788 2.352C11.5308 1.81867 12.0054 1.408 12.6028 1.12C13.2001 0.821333 13.8721 0.672 14.6188 0.672ZM14.7628 6.304C15.2641 6.304 15.7121 6.208 16.1068 6.016C16.5014 5.824 16.8054 5.56267 17.0188 5.232C17.2428 4.90133 17.3548 4.53333 17.3548 4.128C17.3548 3.73333 17.2481 3.376 17.0348 3.056C16.8321 2.72533 16.5281 2.464 16.1228 2.272C15.7281 2.06933 15.2481 1.968 14.6828 1.968C13.9468 1.968 13.3494 2.16533 12.8908 2.56C12.4428 2.95467 12.2188 3.48267 12.2188 4.144C12.2188 4.80533 12.4481 5.33333 12.9068 5.728C13.3654 6.112 13.9841 6.304 14.7628 6.304ZM28.9124 0.799999V1.888L24.3844 12H22.6884L27.1204 2.192H22.0004V4.192H20.4644V0.799999H28.9124ZM34.5784 12.128C33.693 12.128 32.9037 11.904 32.2104 11.456C31.5277 10.9973 30.989 10.336 30.5944 9.472C30.1997 8.608 30.0024 7.584 30.0024 6.4C30.0024 5.216 30.1997 4.192 30.5944 3.328C30.989 2.464 31.5277 1.808 32.2104 1.36C32.9037 0.901333 33.693 0.672 34.5784 0.672C35.453 0.672 36.2317 0.901333 36.9144 1.36C37.6077 1.808 38.1517 2.464 38.5464 3.328C38.941 4.192 39.1384 5.216 39.1384 6.4C39.1384 7.584 38.941 8.608 38.5464 9.472C38.1517 10.336 37.6077 10.9973 36.9144 11.456C36.2317 11.904 35.453 12.128 34.5784 12.128ZM34.5784 10.704C35.4744 10.704 36.189 10.336 36.7224 9.6C37.2664 8.864 37.5384 7.79733 37.5384 6.4C37.5384 5.00267 37.2664 3.936 36.7224 3.2C36.189 2.464 35.4744 2.096 34.5784 2.096C33.6717 2.096 32.9464 2.464 32.4024 3.2C31.869 3.936 31.6024 5.00267 31.6024 6.4C31.6024 7.79733 31.869 8.864 32.4024 9.6C32.9464 10.336 33.6717 10.704 34.5784 10.704ZM47.9311 8.272V9.216H51.4831V10.128H47.9311V12H46.3151V10.128H44.6831V9.216H46.3151V0.799999H50.7151C52.1765 0.799999 53.3178 1.12533 54.1391 1.776C54.9605 2.416 55.3711 3.33333 55.3711 4.528C55.3711 5.73333 54.9605 6.66133 54.1391 7.312C53.3178 7.952 52.1765 8.272 50.7151 8.272H47.9311ZM53.7551 4.544C53.7551 3.78667 53.4938 3.20533 52.9711 2.8C52.4485 2.39467 51.6965 2.192 50.7151 2.192H47.9311V6.944H50.7151C51.6858 6.944 52.4325 6.736 52.9551 6.32C53.4885 5.89333 53.7551 5.30133 53.7551 4.544Z" fill="#99A6B9"/>
<path d="M0 6.912H56.2031V7.712H0V6.912Z" fill="#99A6B9"/>
</svg>
